<svg width="40" height="40" viewBox="0 0 40 40" fill="none" xmlns="http://www.w3.org/2000/svg">
<mask id="mask0_3296_3474" style="mask-type:alpha" maskUnits="userSpaceOnUse" x="0" y="4" width="32" height="32">
<rect y="4" width="32" height="32" fill="#D9D9D9"/>
</mask>
<g mask="url(#mask0_3296_3474)">
<path d="M22.7715 20.6667H7.33317C7.14339 20.6667 6.98484 20.603 6.8575 20.4757C6.73017 20.3484 6.6665 20.1898 6.6665 20C6.6665 19.8102 6.73017 19.6517 6.8575 19.5244C6.98484 19.397 7.14339 19.3334 7.33317 19.3334H22.7715L15.5205 12.082C15.3905 11.9522 15.3225 11.7992 15.3165 11.623C15.3105 11.447 15.3811 11.2855 15.5282 11.1384C15.6751 10.9966 15.8323 10.9244 15.9998 10.9217C16.1674 10.9192 16.3246 10.9915 16.4715 11.1384L24.5792 19.246C24.6956 19.3625 24.7773 19.4814 24.8242 19.6027C24.8713 19.724 24.8948 19.8565 24.8948 20C24.8948 20.1436 24.8713 20.276 24.8242 20.3974C24.7773 20.5187 24.6956 20.6376 24.5792 20.754L16.4715 28.8617C16.3468 28.9864 16.1952 29.053 16.0165 29.0617C15.8378 29.0701 15.6751 29.0035 15.5282 28.8617C15.3811 28.7146 15.3075 28.556 15.3075 28.386C15.3075 28.2158 15.3811 28.0572 15.5282 27.9104L22.7715 20.6667Z" fill="#3DCFB6"/>
</g>
</svg>
