<svg width="32" height="32" viewBox="0 0 32 32" fill="none" xmlns="http://www.w3.org/2000/svg">
<mask id="mask0_14998_327" style="mask-type:alpha" maskUnits="userSpaceOnUse" x="0" y="0" width="32" height="32">
<rect width="32" height="32" fill="#D9D9D9"/>
</mask>
<g mask="url(#mask0_14998_327)">
<path d="M9.22831 16.6665L16.4793 23.9179C16.6093 24.0477 16.6773 24.2007 16.6833 24.3769C16.6893 24.5529 16.6188 24.7144 16.4716 24.8615C16.3248 25.0033 16.1675 25.0755 16 25.0782C15.8324 25.0807 15.6752 25.0084 15.5283 24.8615L7.42065 16.7539C7.3042 16.6374 7.22254 16.5185 7.17565 16.3972C7.12854 16.2759 7.10498 16.1434 7.10498 15.9999C7.10498 15.8563 7.12854 15.7239 7.17565 15.6025C7.22254 15.4812 7.3042 15.3623 7.42065 15.2459L15.5283 7.13821C15.653 7.01355 15.8046 6.94688 15.9833 6.93821C16.162 6.92977 16.3248 6.99643 16.4716 7.13821C16.6188 7.28532 16.6923 7.44388 16.6923 7.61388C16.6923 7.7841 16.6188 7.94266 16.4716 8.08954L9.22831 15.3332H24.6666C24.8564 15.3332 25.015 15.3969 25.1423 15.5242C25.2696 15.6515 25.3333 15.8101 25.3333 15.9999C25.3333 16.1897 25.2696 16.3482 25.1423 16.4755C25.015 16.6029 24.8564 16.6665 24.6666 16.6665H9.22831Z" fill="white"/>
</g>
</svg>
