<svg width="48" height="48" viewBox="0 0 48 48" fill="none" xmlns="http://www.w3.org/2000/svg">
<mask id="mask0_3296_3465" style="mask-type:alpha" maskUnits="userSpaceOnUse" x="0" y="0" width="48" height="48">
<rect width="48" height="48" fill="#D9D9D9"/>
</mask>
<g mask="url(#mask0_3296_3465)">
<path d="M24.0001 25.454L16.8156 32.6385C16.6026 32.8512 16.3666 32.9512 16.1076 32.9385C15.8486 32.9255 15.6128 32.8127 15.4001 32.6C15.1874 32.3874 15.0811 32.145 15.0811 31.873C15.0811 31.6014 15.1874 31.359 15.4001 31.146L22.5461 24L15.3616 16.8655C15.1489 16.6525 15.0489 16.4102 15.0616 16.1385C15.0746 15.8669 15.1874 15.6245 15.4001 15.4115C15.6128 15.1989 15.8551 15.0925 16.1271 15.0925C16.3988 15.0925 16.6411 15.1989 16.8541 15.4115L24.0001 22.596L31.1346 15.4115C31.3476 15.1989 31.5836 15.0925 31.8426 15.0925C32.1016 15.0925 32.3374 15.1989 32.5501 15.4115C32.7708 15.6322 32.8811 15.8764 32.8811 16.144C32.8811 16.412 32.7708 16.6525 32.5501 16.8655L25.4041 24L32.5886 31.1845C32.8013 31.3975 32.9076 31.6335 32.9076 31.8925C32.9076 32.1515 32.8013 32.3874 32.5886 32.6C32.3679 32.8207 32.1238 32.931 31.8561 32.931C31.5881 32.931 31.3476 32.8207 31.1346 32.6L24.0001 25.454Z" fill="white"/>
</g>
</svg>
